<svg xmlns="http://www.w3.org/2000/svg" viewBox="0 0 780 1160" role="img" aria-labelledby="title desc">
<title id="title">エキココ スマホヒーロービジュアル</title>
<desc id="desc">スマートフォンを主役に、路線図と車内の要素を縦長に整理したモバイル用ブランドビジュアル</desc>
<defs>
  <linearGradient id="bg" x1="0" y1="0" x2="0" y2="1"><stop stop-color="#fffefb"/><stop offset="1" stop-color="#ece6dc"/></linearGradient>
  <linearGradient id="window" x1="0" y1="0" x2="0" y2="1"><stop stop-color="#dfecef"/><stop offset="1" stop-color="#f8f5ef"/></linearGradient>
  <filter id="shadow" x="-30%" y="-30%" width="160%" height="160%"><feDropShadow dx="0" dy="18" stdDeviation="16" flood-color="#17191c" flood-opacity=".14"/></filter>
</defs>
<rect width="780" height="1160" rx="36" fill="url(#bg)"/>
<rect x="44" y="40" width="692" height="1080" rx="34" fill="#fbf9f4" stroke="#d7d0c4"/>
<text x="84" y="88" fill="#8a8f93" font-family="Arial,sans-serif" font-size="12" font-weight="700" letter-spacing="2.6">TRAIN / CURRENT STATION</text>
<text x="84" y="122" fill="#17191c" font-family="Arial,sans-serif" font-size="22" font-weight="700">EKIKOKO</text>
<rect x="82" y="152" width="616" height="142" rx="24" fill="#fffdf8" stroke="#d6cfc4"/>
<polyline points="112,230 190,194 260,210 344,174 430,194 516,164 626,188" fill="none" stroke="#356e80" stroke-width="5" stroke-linecap="round" stroke-linejoin="round"/>
<circle cx="112" cy="230" r="7" fill="#356e80"/><circle cx="190" cy="194" r="7" fill="#356e80"/><circle cx="260" cy="210" r="9" fill="#17191c"/><circle cx="344" cy="174" r="7" fill="#356e80"/><circle cx="430" cy="194" r="7" fill="#356e80"/><circle cx="516" cy="164" r="7" fill="#356e80"/><circle cx="626" cy="188" r="7" fill="#c49b62"/>
<text x="112" y="266" fill="#8a8f93" font-family="Arial,sans-serif" font-size="11" font-weight="700" letter-spacing="1.8">NOW → NEXT → DESTINATION</text>
<rect x="82" y="320" width="616" height="240" rx="28" fill="url(#window)" stroke="#d6cfc4"/>
<g opacity=".86"><rect x="132" y="430" width="64" height="86" rx="5" fill="#bfd2d9"/><rect x="210" y="398" width="84" height="118" rx="6" fill="#acc3cd"/><rect x="316" y="370" width="114" height="146" rx="7" fill="#a7bdc7"/><rect x="452" y="410" width="74" height="106" rx="5" fill="#c5d6dc"/><rect x="544" y="384" width="96" height="132" rx="7" fill="#b1c6cf"/></g>
<g stroke="#8d887e" stroke-width="7" fill="none"><path d="M192 0v88M390 0v88M590 0v88"/><path d="M192 88c0 46 38 84 84 84s84-38 84-84M390 88c0 46 38 84 84 84s84-38 84-84"/></g>
<g transform="translate(162 470)" filter="url(#shadow)">
  <rect width="456" height="594" rx="54" fill="#17191c"/><rect x="14" y="14" width="428" height="566" rx="42" fill="#fbfaf6"/><rect x="188" y="24" width="80" height="10" rx="5" fill="#cbc6bc"/>
  <text x="50" y="96" fill="#5f6469" font-family="Arial,sans-serif" font-size="16" font-weight="700" letter-spacing="2">CURRENT STATION</text><line x1="50" y1="116" x2="378" y2="116" stroke="#cbc6bc"/>
  <text x="50" y="252" fill="#17191c" font-family="Arial,'Hiragino Sans',sans-serif" font-size="114" font-weight="700">新宿</text><text x="58" y="296" fill="#5f6469" font-family="Arial,'Hiragino Sans',sans-serif" font-size="22">しんじゅく</text>
  <line x1="50" y1="342" x2="378" y2="342" stroke="#cbc6bc"/><circle cx="66" cy="390" r="10" fill="#356e80"/><text x="92" y="398" fill="#17191c" font-family="Arial,'Hiragino Sans',sans-serif" font-size="24">JR 山手線</text>
  <text x="50" y="486" fill="#5f6469" font-family="Arial,'Hiragino Sans',sans-serif" font-size="18">現在地から</text><text x="270" y="486" fill="#17191c" font-family="Arial,sans-serif" font-size="42" font-weight="700">84 m</text>
  <rect x="50" y="524" width="328" height="42" rx="11" fill="#17191c"/><text x="84" y="551" fill="#f4f2ec" font-family="Arial,'Hiragino Sans',sans-serif" font-size="17" font-weight="700">車内モード</text><text x="318" y="551" fill="#c8a16d" font-family="Arial,sans-serif" font-size="13" font-weight="700">OPEN</text>
</g>
</svg>