<svg xmlns="http://www.w3.org/2000/svg" viewBox="0 0 1440 900" role="img" aria-labelledby="t d"><title id="t">座席から見た電車内とエキココ</title><desc id="d">座席に座った視点。前の乗客で電光掲示板が見えにくく、手元のスマートフォンで現在駅を確認している。</desc><defs><linearGradient id="sky" x1="0" y1="0" x2="0" y2="1"><stop stop-color="#dbeaf0"/><stop offset="1" stop-color="#f7f4ed"/></linearGradient><linearGradient id="wall" x1="0" y1="0" x2="1" y2="1"><stop stop-color="#fafafa"/><stop offset="1" stop-color="#e8e8e5"/></linearGradient><linearGradient id="seat" x1="0" y1="0" x2="0" y2="1"><stop stop-color="#214d67"/><stop offset="1" stop-color="#17394e"/></linearGradient><filter id="shadow" x="-40%" y="-40%" width="180%" height="180%"><feDropShadow dx="0" dy="22" stdDeviation="22" flood-color="#111820" flood-opacity=".20"/></filter></defs><rect width="1440" height="900" fill="#f4f2ec"/><rect width="1440" height="900" fill="url(#wall)"/><path d="M0 92H690Q724 92 724 128V610Q724 642 690 642H0Z" fill="url(#sky)" stroke="#c9c7c2" stroke-width="3"/><g opacity=".72"><rect x="78" y="370" width="92" height="154" rx="5" fill="#a8c0ca"/><rect x="186" y="322" width="124" height="202" rx="6" fill="#91aeb9"/><rect x="330" y="352" width="78" height="172" rx="5" fill="#bed0d7"/><rect x="430" y="286" width="138" height="238" rx="6" fill="#9bb6c0"/><rect x="590" y="338" width="80" height="186" rx="5" fill="#b7cbd3"/><path d="M0 548H724" stroke="#8eb0bd" stroke-width="10" opacity=".35"/></g><path d="M0 658C212 622 474 620 760 672V900H0Z" fill="url(#seat)"/><rect x="730" y="0" width="710" height="112" fill="#f4f4f1"/><g fill="none" stroke="#a4a29d" stroke-width="10"><path d="M810 0v100M1030 0v100M1246 0v100"/><path d="M760 88h100l-18 82h-64zM980 88h100l-18 82h-64zM1196 88h100l-18 82h-64z"/></g><rect x="915" y="118" width="420" height="112" rx="12" fill="#11171b" stroke="#525b60" stroke-width="4"/><text x="952" y="160" font-family="Arial,sans-serif" font-size="18" fill="#96a4ab" letter-spacing="3">CURRENT / NEXT</text><text x="952" y="206" font-family="'Hiragino Sans','Yu Gothic',sans-serif" font-size="42" font-weight="700" fill="#f3f2ec">東 京</text><line x1="1136" y1="188" x2="1298" y2="188" stroke="#59a64b" stroke-width="7"/><circle cx="1192" cy="188" r="13" fill="#f1ba4b"/><ellipse cx="1038" cy="360" rx="102" ry="112" fill="#20282f"/><path d="M858 654C882 488 942 422 1038 422s156 66 182 232Z" fill="#252e36"/><rect x="962" y="458" width="144" height="178" rx="38" fill="#1d242a" stroke="#3b454d" stroke-width="3"/><ellipse cx="1302" cy="392" rx="68" ry="78" fill="#6c5a4e"/><path d="M1206 650C1220 524 1252 470 1300 470c58 0 88 52 104 180Z" fill="#d5cabd"/><path d="M632 900c24-150 88-224 176-224 90 0 148 76 168 224Z" fill="#26313b"/><path d="M836 900c12-126 60-188 132-188 70 0 118 62 132 188Z" fill="#1d252c"/><g filter="url(#shadow)"><path d="M1116 694c-74-8-122 26-144 80-18 46 8 84 58 92l168 28 116-96-30-134-88-12c-28-4-54 6-80 42Z" fill="#d8a680"/><g transform="translate(1014 360) rotate(6)"><rect width="286" height="514" rx="42" fill="#12181e"/><rect x="10" y="10" width="266" height="494" rx="34" fill="#fbfbf8"/><rect x="105" y="22" width="76" height="10" rx="5" fill="#1a2228"/><text x="36" y="78" font-family="Arial,sans-serif" font-size="13" font-weight="700" letter-spacing="2" fill="#6e757a">CURRENT STATION</text><text x="34" y="182" font-family="'Hiragino Sans','Yu Gothic',sans-serif" font-size="82" font-weight="700" fill="#12181e">東京</text><text x="38" y="220" font-family="'Hiragino Sans','Yu Gothic',sans-serif" font-size="18" fill="#6d7377">とうきょう / Tokyo</text><line x1="38" y1="274" x2="244" y2="274" stroke="#d2d3cf"/><line x1="52" y1="332" x2="232" y2="332" stroke="#52a348" stroke-width="8"/><circle cx="72" cy="332" r="9" fill="#fff" stroke="#52a348" stroke-width="4"/><circle cx="142" cy="332" r="16" fill="#fff" stroke="#15222b" stroke-width="6"/><circle cx="218" cy="332" r="9" fill="#fff" stroke="#52a348" stroke-width="4"/><text x="44" y="372" font-family="'Hiragino Sans','Yu Gothic',sans-serif" font-size="15" fill="#474e53">有楽町</text><text x="124" y="372" font-family="'Hiragino Sans','Yu Gothic',sans-serif" font-size="15" font-weight="700" fill="#12181e">東京</text><text x="202" y="372" font-family="'Hiragino Sans','Yu Gothic',sans-serif" font-size="15" fill="#474e53">神田</text><rect x="34" y="414" width="218" height="62" rx="16" fill="#eef1f2"/><text x="56" y="450" font-family="'Hiragino Sans','Yu Gothic',sans-serif" font-size="16" font-weight="700" fill="#17232a">次は 神田　約2分</text></g></g></svg>